<svg xmlns="http://www.w3.org/2000/svg" xmlns:xlink="http://www.w3.org/1999/xlink" width="200" zoomAndPan="magnify" viewBox="0 0 150 299.999988" height="400" preserveAspectRatio="xMidYMid meet" version="1.0"><defs><clipPath id="9180a7943b"><path d="M 28.457031 63.183594 L 108.152344 63.183594 L 108.152344 252.992188 L 28.457031 252.992188 Z M 28.457031 63.183594 " clip-rule="nonzero"/></clipPath><clipPath id="e12217e6f5"><path d="M 98.65625 66.007812 C 108.667969 106.816406 108.667969 111.4375 107.640625 115.542969 C 106.613281 119.394531 104.304688 122.988281 101.738281 125.8125 C 99.425781 128.632812 97.117188 130.429688 93.011719 132.996094 C 85.566406 137.617188 66.574219 141.980469 58.101562 147.371094 C 52.199219 150.964844 47.578125 153.789062 44.5 158.664062 C 41.164062 164.054688 40.136719 169.699219 38.851562 178.429688 C 36.542969 194.339844 42.960938 239.515625 39.109375 248.5 C 38.082031 251.320312 36.03125 252.863281 34.746094 252.863281 C 33.207031 252.605469 30.382812 249.527344 30.640625 247.984375 C 30.640625 246.703125 34.234375 243.878906 35.515625 244.136719 C 37.054688 244.390625 39.367188 247.984375 39.109375 249.527344 C 38.851562 250.808594 36.542969 252.605469 35.003906 252.863281 C 33.71875 252.863281 31.921875 252.09375 30.894531 249.78125 C 26.789062 242.339844 29.097656 197.933594 29.871094 182.277344 C 30.382812 173.808594 30.640625 168.417969 32.691406 162.769531 C 34.234375 158.152344 36.800781 153.789062 39.367188 150.449219 C 41.675781 147.628906 43.214844 146.085938 46.808594 144.035156 C 53.996094 139.414062 73.246094 134.539062 82.230469 129.660156 C 88.390625 126.324219 93.523438 123.242188 96.601562 119.394531 C 98.914062 116.570312 99.941406 113.234375 100.453125 110.152344 C 101.222656 106.816406 100.96875 103.992188 100.195312 99.375 C 99.171875 91.417969 90.1875 71.652344 91.46875 66.777344 C 91.726562 64.980469 93.265625 63.695312 94.292969 63.441406 C 95.578125 63.441406 98.65625 66.007812 98.65625 66.007812 " clip-rule="nonzero"/></clipPath><clipPath id="6759541d22"><path d="M 55.402344 58.03125 L 129.398438 58.03125 L 129.398438 255 L 55.402344 255 Z M 55.402344 58.03125 " clip-rule="nonzero"/></clipPath><clipPath id="f87acd7f3a"><path d="M 128.6875 62.160156 C 129.714844 126.070312 129.460938 127.867188 127.664062 130.691406 C 125.609375 134.796875 121.503906 138.90625 116.882812 142.242188 C 110.464844 146.863281 99.6875 148.402344 91.984375 153.792969 C 83.773438 159.695312 74.273438 168.679688 69.910156 177.148438 C 66.0625 184.335938 66.0625 191.523438 65.035156 200.761719 C 63.238281 213.339844 61.441406 237.980469 62.726562 246.449219 C 63.238281 249.785156 65.804688 251.582031 65.292969 253.121094 C 65.035156 254.148438 62.980469 255.175781 61.699219 254.917969 C 60.414062 254.917969 57.847656 253.121094 57.589844 251.839844 C 57.335938 250.300781 59.644531 246.707031 60.929688 246.449219 C 62.210938 246.191406 66.0625 248.757812 66.0625 250.042969 C 66.320312 251.328125 62.210938 255.175781 60.929688 254.917969 C 58.617188 254.148438 56.820312 244.652344 56.050781 239.261719 C 55.28125 233.359375 55.796875 227.457031 56.050781 220.269531 C 56.308594 210.773438 56.308594 196.140625 58.363281 186.902344 C 59.644531 179.972656 60.671875 175.09375 64.523438 168.933594 C 69.65625 160.722656 80.949219 150.199219 89.675781 144.550781 C 96.605469 139.675781 105.84375 138.90625 111.234375 135.3125 C 115.34375 132.488281 118.164062 130.949219 120.21875 125.816406 C 124.839844 114.519531 116.882812 68.835938 120.988281 61.132812 C 122.015625 59.082031 123.8125 58.054688 125.351562 58.308594 C 126.636719 58.308594 128.6875 62.160156 128.6875 62.160156 " clip-rule="nonzero"/></clipPath></defs><g clip-path="url(#9180a7943b)"><g clip-path="url(#e12217e6f5)"><path fill="#aed768" d="M 118.164062 53.171875 L 118.164062 263 L 19.601562 263 L 19.601562 53.171875 Z M 118.164062 53.171875 " fill-opacity="1" fill-rule="nonzero"/></g></g><g clip-path="url(#6759541d22)"><g clip-path="url(#f87acd7f3a)"><path fill="#aed768" d="M 140.496094 48.042969 L 140.496094 265.582031 L 45.785156 265.582031 L 45.785156 48.042969 Z M 140.496094 48.042969 " fill-opacity="1" fill-rule="nonzero"/></g></g></svg>