<svg xmlns="http://www.w3.org/2000/svg" xmlns:xlink="http://www.w3.org/1999/xlink" width="200" zoomAndPan="magnify" viewBox="0 0 150 299.999988" height="400" preserveAspectRatio="xMidYMid meet" version="1.0"><defs><clipPath id="1687ea6430"><path d="M 34.519531 58.742188 L 123 58.742188 L 123 144.804688 L 34.519531 144.804688 Z M 34.519531 58.742188 " clip-rule="nonzero"/></clipPath><clipPath id="d1354985c4"><path d="M 35.101562 142.199219 C 35.476562 112.351562 36.300781 108.75 37.425781 105.523438 C 38.324219 102.976562 39.375 101.175781 40.726562 98.851562 C 42.449219 96.074219 44.476562 93.074219 47.175781 89.925781 C 50.773438 85.648438 56.851562 79.574219 61.199219 76.050781 C 64.351562 73.425781 66.898438 71.925781 70.125 70.050781 C 73.726562 67.949219 77.773438 65.773438 81.976562 64.050781 C 86.398438 62.25 91.949219 60.375 96.148438 59.625 C 99.375 58.949219 102 58.648438 104.773438 58.875 C 107.398438 59.175781 110.175781 60.074219 112.351562 61.125 C 114.300781 61.949219 115.949219 63.074219 117.375 64.425781 C 118.800781 65.699219 120.074219 67.125 120.976562 68.925781 C 122.023438 71.101562 122.699219 74.550781 122.773438 76.726562 C 122.851562 78.375 122.476562 79.273438 122.023438 80.925781 C 121.351562 83.550781 119.773438 87.226562 118.273438 90.523438 C 116.625 94.199219 114.449219 98.476562 112.351562 101.925781 C 110.398438 105 108.675781 107.625 106.273438 110.25 C 103.648438 113.101562 100.5 115.648438 97.050781 118.125 C 93.300781 120.898438 87.226562 124.574219 84.300781 126 C 82.875 126.675781 82.351562 126.898438 80.925781 127.199219 C 78.976562 127.648438 75.75 127.425781 73.425781 127.949219 C 71.25 128.398438 69.75 129.074219 67.351562 129.898438 C 63.675781 131.25 57.601562 133.425781 53.625 135.449219 C 50.175781 137.175781 47.550781 139.425781 44.550781 140.925781 C 41.625 142.425781 37.273438 144.824219 35.773438 144.675781 C 35.175781 144.601562 34.726562 144.148438 34.648438 143.851562 C 34.574219 143.476562 34.875 142.726562 35.175781 142.5 C 35.550781 142.351562 36.601562 142.648438 36.75 142.949219 C 36.976562 143.324219 36.601562 144.375 36.226562 144.523438 C 35.925781 144.75 35.101562 144.523438 34.875 144.226562 C 34.648438 143.925781 34.648438 143.101562 35.101562 142.574219 C 36 141.449219 40.273438 140.773438 43.050781 139.425781 C 46.199219 137.925781 48.898438 135.675781 52.875 133.800781 C 58.351562 131.25 67.800781 127.425781 73.125 126.148438 C 76.574219 125.324219 78.601562 126.226562 81.75 125.175781 C 86.023438 123.75 92.175781 119.476562 96 116.773438 C 98.925781 114.824219 101.023438 113.101562 103.125 111.074219 C 104.925781 109.351562 106.351562 107.773438 107.851562 105.675781 C 109.648438 103.351562 111.300781 100.574219 112.875 97.574219 C 114.75 94.199219 116.773438 89.773438 118.125 86.324219 C 119.324219 83.476562 120.523438 80.699219 120.824219 78.375 C 121.125 76.648438 120.976562 75.226562 120.75 73.800781 C 120.523438 72.375 120.300781 71.175781 119.476562 69.824219 C 118.425781 67.949219 116.324219 65.476562 114.074219 63.976562 C 111.523438 62.324219 107.851562 61.125 104.851562 60.675781 C 102 60.300781 99.601562 60.675781 96.523438 61.199219 C 92.476562 62.023438 87 63.824219 82.648438 65.550781 C 78.523438 67.273438 74.550781 69.375 71.023438 71.476562 C 67.800781 73.351562 65.398438 74.773438 62.25 77.324219 C 58.050781 80.773438 52.050781 86.773438 48.523438 90.898438 C 45.824219 94.050781 43.875 96.976562 42.226562 99.675781 C 40.875 101.925781 39.898438 103.648438 39 106.125 C 37.949219 109.199219 37.199219 112.5 36.75 116.925781 C 36.074219 123.601562 38.101562 139.949219 36.898438 142.351562 C 36.675781 142.949219 36.226562 143.101562 35.925781 143.101562 C 35.625 143.101562 35.101562 142.199219 35.101562 142.199219 " clip-rule="nonzero"/></clipPath><clipPath id="268663b25c"><path d="M 61 132.839844 L 132.890625 132.839844 L 132.890625 167.621094 L 61 167.621094 Z M 61 132.839844 " clip-rule="nonzero"/></clipPath><clipPath id="eb229669cd"><path d="M 61.800781 150.074219 C 107.925781 134.550781 110.476562 133.875 113.925781 133.425781 C 117 133.050781 120.226562 132.449219 122.925781 133.199219 C 125.476562 133.949219 128.175781 136.050781 129.75 137.699219 C 130.949219 138.898438 131.625 140.25 132.148438 141.601562 C 132.523438 142.875 132.523438 144 132.601562 145.574219 C 132.75 147.898438 132.824219 151.800781 132.601562 154.425781 C 132.449219 156.449219 132.449219 158.476562 131.550781 159.976562 C 130.800781 161.25 129.375 162.148438 128.101562 162.898438 C 126.898438 163.574219 125.851562 163.800781 124.050781 164.25 C 120.976562 165.074219 116.023438 166.125 111.074219 166.648438 C 104.550781 167.25 95.398438 168.300781 88.199219 166.949219 C 81.300781 165.601562 73.574219 162.074219 68.773438 158.925781 C 65.324219 156.675781 60.898438 152.773438 61.050781 151.425781 C 61.125 150.824219 62.324219 150.226562 62.625 150.300781 C 63 150.449219 63.300781 151.875 63.074219 152.175781 C 62.851562 152.476562 61.648438 152.476562 61.351562 152.175781 C 61.125 151.949219 61.199219 150.824219 61.425781 150.523438 C 61.726562 150.226562 62.25 150.226562 62.851562 150.449219 C 64.351562 150.976562 66.601562 155.023438 69.75 157.125 C 74.25 160.199219 81.75 163.949219 88.425781 165.226562 C 95.398438 166.648438 105 165.449219 110.851562 164.925781 C 114.75 164.550781 117.375 164.101562 120.449219 163.273438 C 123.523438 162.375 127.875 161.550781 129.449219 159.675781 C 130.726562 158.324219 130.648438 156.601562 130.875 154.425781 C 131.175781 151.050781 131.101562 144.226562 129.976562 141.300781 C 129.300781 139.574219 128.25 138.675781 127.125 137.625 C 125.851562 136.574219 124.574219 135.449219 122.625 135 C 119.699219 134.25 115.800781 134.699219 110.476562 135.75 C 99.675781 137.851562 66.523438 152.101562 62.324219 151.875 C 61.648438 151.800781 61.351562 151.648438 61.199219 151.351562 C 61.125 151.050781 61.800781 150.074219 61.800781 150.074219 " clip-rule="nonzero"/></clipPath><clipPath id="0dc23a1042"><path d="M 39.402344 64 L 116.421875 64 L 116.421875 130 L 39.402344 130 Z M 39.402344 64 " clip-rule="nonzero"/></clipPath><clipPath id="3a2d630437"><path d="M 42 107.699219 C 59.023438 86.476562 62.324219 83.550781 66.074219 80.324219 C 69.75 77.101562 73.425781 73.574219 77.625 71.101562 C 81.675781 68.699219 86.324219 66.074219 90.898438 65.773438 C 95.550781 65.398438 101.925781 66.523438 105.523438 69.226562 C 109.050781 71.925781 111.523438 77.25 112.425781 81.824219 C 113.324219 86.550781 112.5 92.699219 110.699219 97.273438 C 108.976562 101.773438 105.300781 105.523438 102 109.050781 C 98.550781 112.648438 94.574219 116.175781 90.449219 118.648438 C 86.324219 121.050781 81.523438 124.050781 77.175781 123.824219 C 72.675781 123.601562 66.976562 120.449219 63.976562 116.851562 C 60.976562 113.175781 58.800781 106.425781 59.398438 101.773438 C 60 97.273438 64.351562 93.148438 67.273438 89.324219 C 70.199219 85.425781 73.5 81.898438 77.023438 78.449219 C 80.699219 74.851562 85.351562 70.574219 89.023438 68.175781 C 91.726562 66.375 94.199219 65.175781 96.523438 64.574219 C 98.398438 64.050781 100.050781 64.050781 101.773438 64.273438 C 103.5 64.425781 105.300781 64.949219 106.875 65.699219 C 108.449219 66.375 109.949219 67.425781 111.226562 68.625 C 112.425781 69.824219 113.550781 71.25 114.375 72.75 C 115.199219 74.324219 115.800781 76.050781 116.023438 77.773438 C 116.324219 79.425781 116.324219 81.300781 116.023438 83.023438 C 115.800781 84.675781 115.199219 86.476562 114.375 87.976562 C 113.550781 89.476562 112.5 90.976562 111.226562 92.175781 C 109.949219 93.375 108.449219 94.351562 106.875 95.101562 C 105.300781 95.851562 103.5 96.300781 101.851562 96.523438 C 100.125 96.675781 98.25 96.601562 96.601562 96.226562 C 94.875 95.851562 93.148438 95.175781 91.726562 94.273438 C 90.226562 93.375 88.800781 92.25 87.675781 90.898438 C 86.550781 89.550781 85.648438 87.976562 84.976562 86.398438 C 84.375 84.824219 83.925781 83.023438 83.851562 81.300781 C 83.773438 79.574219 83.925781 77.699219 84.449219 76.050781 C 84.898438 74.398438 85.648438 72.75 86.625 71.324219 C 87.601562 69.898438 88.875 68.550781 90.226562 67.5 C 91.574219 66.449219 93.226562 65.550781 94.875 65.023438 C 96.523438 64.5 98.324219 64.199219 100.050781 64.199219 C 101.773438 64.199219 103.574219 64.5 105.226562 65.023438 C 106.875 65.550781 108.449219 66.449219 109.875 67.5 C 111.226562 68.550781 112.5 69.824219 113.476562 71.25 C 114.449219 72.675781 115.199219 74.398438 115.648438 76.050781 C 116.175781 77.699219 116.324219 79.574219 116.25 81.226562 C 116.175781 82.949219 115.726562 84.75 115.125 86.398438 C 114.449219 87.976562 113.925781 89.175781 112.425781 90.898438 C 109.648438 94.125 101.925781 98.851562 97.800781 103.050781 C 94.199219 106.648438 90.898438 114.523438 88.726562 114.074219 C 86.476562 113.550781 87.75 103.125 84.523438 99.824219 C 81 96.148438 67.574219 96.523438 67.351562 94.199219 C 67.125 92.023438 78.148438 85.351562 82.125 86.324219 C 85.800781 87.300781 91.125 95.398438 90.523438 99 C 90 102.449219 83.101562 104.476562 79.574219 107.625 C 75.898438 110.925781 71.925781 115.125 69 118.574219 C 66.601562 121.273438 64.726562 124.648438 63 126.300781 C 62.023438 127.273438 61.425781 127.726562 60.226562 128.25 C 58.5 129 55.5 129.75 53.625 129.824219 C 52.351562 129.976562 51.523438 129.824219 50.25 129.449219 C 48.523438 128.925781 45.898438 127.726562 44.25 126.300781 C 42.601562 124.875 41.175781 122.398438 40.425781 120.75 C 39.898438 119.550781 39.675781 118.726562 39.601562 117.449219 C 39.523438 115.574219 39.898438 112.425781 40.425781 110.699219 C 40.800781 109.425781 42 107.699219 42 107.699219 " clip-rule="nonzero"/></clipPath><clipPath id="e175cff553"><path d="M 82.921875 136.789062 L 129.476562 136.789062 L 129.476562 167.351562 L 82.921875 167.351562 Z M 82.921875 136.789062 " clip-rule="nonzero"/></clipPath><clipPath id="33cf55e606"><path d="M 116.25 164.851562 C 94.800781 167.25 93.75 166.949219 92.324219 166.351562 C 90.824219 165.824219 89.398438 165 88.273438 164.023438 C 87.074219 163.050781 85.949219 161.851562 85.125 160.5 C 84.375 159.226562 83.699219 157.726562 83.324219 156.226562 C 83.023438 154.726562 82.875 153.074219 83.023438 151.574219 C 83.175781 150.074219 83.550781 148.425781 84.148438 147.074219 C 84.824219 145.648438 85.726562 144.300781 86.699219 143.175781 C 87.75 141.976562 89.023438 141 90.375 140.25 C 91.726562 139.5 93.300781 138.976562 94.800781 138.675781 C 96.300781 138.375 97.949219 138.375 99.449219 138.601562 C 100.949219 138.824219 102.523438 139.273438 103.949219 140.023438 C 105.300781 140.699219 106.574219 141.675781 107.699219 142.800781 C 108.75 143.851562 109.726562 145.199219 110.398438 146.550781 C 111.074219 147.976562 111.523438 149.550781 111.675781 151.050781 C 111.898438 152.550781 111.824219 154.199219 111.523438 155.699219 C 111.226562 157.199219 110.625 158.773438 109.875 160.125 C 109.125 161.398438 108.074219 162.675781 106.949219 163.726562 C 105.75 164.699219 104.398438 165.601562 102.976562 166.199219 C 101.550781 166.800781 99.976562 167.175781 98.398438 167.25 C 96.898438 167.398438 95.25 167.25 93.75 166.875 C 92.324219 166.425781 90.824219 165.824219 89.476562 164.925781 C 88.199219 164.101562 87 163.050781 86.023438 161.773438 C 85.125 160.574219 84.300781 159.148438 83.773438 157.726562 C 83.25 156.300781 82.949219 154.648438 82.949219 153.148438 C 82.949219 151.574219 83.175781 150 83.625 148.5 C 84.074219 147.074219 84.824219 145.574219 85.726562 144.375 C 86.625 143.101562 87.824219 141.976562 89.101562 141.074219 C 90.300781 140.175781 91.351562 139.574219 93.300781 139.050781 C 96.898438 138 105.300781 137.324219 109.875 137.101562 C 113.023438 136.875 115.800781 136.800781 117.824219 137.101562 C 119.175781 137.324219 119.925781 137.476562 121.050781 138.074219 C 122.699219 138.898438 125.023438 140.476562 126.375 142.199219 C 127.726562 143.925781 128.699219 146.175781 129.148438 148.351562 C 129.523438 150.449219 129.375 152.925781 128.699219 155.023438 C 128.101562 157.050781 126.824219 159.226562 125.25 160.726562 C 123.75 162.300781 121.273438 163.574219 119.550781 164.25 C 118.351562 164.699219 116.25 164.851562 116.25 164.851562 " clip-rule="nonzero"/></clipPath></defs><g clip-path="url(#1687ea6430)"><g clip-path="url(#d1354985c4)"><path fill="#ff5757" d="M 31.648438 55.875 L 125.960938 55.875 L 125.960938 147.675781 L 31.648438 147.675781 Z M 31.648438 55.875 " fill-opacity="1" fill-rule="nonzero"/></g></g><g clip-path="url(#268663b25c)"><g clip-path="url(#eb229669cd)"><path fill="#ff5757" d="M 58.050781 130.199219 L 135.6875 130.199219 L 135.6875 169.949219 L 58.050781 169.949219 Z M 58.050781 130.199219 " fill-opacity="1" fill-rule="nonzero"/></g></g><g clip-path="url(#0dc23a1042)"><g clip-path="url(#3a2d630437)"><path fill="#ff5757" d="M 36.601562 61.199219 L 119.222656 61.199219 L 119.222656 132.898438 L 36.601562 132.898438 Z M 36.601562 61.199219 " fill-opacity="1" fill-rule="nonzero"/></g></g><g clip-path="url(#e175cff553)"><g clip-path="url(#33cf55e606)"><path fill="#ff5757" d="M 79.949219 134.101562 L 132.164062 134.101562 L 132.164062 170.324219 L 79.949219 170.324219 Z M 79.949219 134.101562 " fill-opacity="1" fill-rule="nonzero"/></g></g></svg>